<svg id="Layer_1" data-name="Layer 1" xmlns="http://www.w3.org/2000/svg" viewBox="0 0 60.99 52.04"><defs><style>.cls-1{fill:#000000;}.cls-2{fill:#9b843a;}</style></defs><title>Peluca</title><g id="hair"><path class="cls-1" d="M12.21,47.57s0,6.77,2.35,8.77-5.33-3.65-5.33-3.65L7.82,48.86s-3.69.76-4.2-2.14c0,0,3.65,1.14,2.31-5.26L1.51,39V37.57l2-3.82,1.18-2.12,0.18-3.18L4.57,26.39,4.8,23l1-2.65,1.59-1.94,1.76-2.24,3.29-2.76,1-1h1.1l2.65-1.24,2.24-1.59L22,7.92l2.57-1,2.78-.35,1.82-.29h2.47L34.16,6h2.41L38.8,6.27,42.1,6.92,44,7.8l1.47,0.82L47.1,9.45l2.53,2.13,1.65,1.5,2.12,1.26,1.13,1.88,1.53,2.2,2,1.73L58.65,22l2,2.75,0.63,3.37v1.41l0.86,2.51,0.39,2.75-1.33,3.06,0.39,2-0.94,1.26-1.26,1.53-0.16,2V46l-1.41,3.14-2,1.32-0.47,3.1-1.33,2.13S48.77,56.85,48.53,58l1.73-4.45,1-1.71-0.94-1.43a1,1,0,0,0-.71,1.43,10.15,10.15,0,0,1,1.65-7.26V42.69s-5.57,3.37-5.88,2.88c0,0,2.9-2.53,3.61-3.94s-1.73-2.11-1.73-2.11-2.58,3.68-8.74,3.17c0,0,8.27-3.8,7.45-8.51,0,0-8,10.2-20.83,8.51,0,0,8.55-3.33,9-6.71,0,0-4.86,5.49-11.73,6,0,0,4.69-2,4.68-3,0,0-7.23,3.53-8.09,2.82,0,0-4.47-.7-4.47-2.35,0,0-1.49,6.66-.08,10.35Z" transform="translate(-1.51 -5.98)"/><path class="cls-2" d="M39.2,22S28.37,11.51,17.78,22C17.78,22,29.63,16.29,39.2,22Z" transform="translate(-1.51 -5.98)"/><path class="cls-2" d="M39.2,8.68a22.86,22.86,0,0,0-20.75,7.14S23,3.27,39.2,8.68Z" transform="translate(-1.51 -5.98)"/><path class="cls-2" d="M41.75,28.45S44.92,33.31,37.47,39C37.47,39,43.12,32.84,41.75,28.45Z" transform="translate(-1.51 -5.98)"/><path class="cls-2" d="M24.61,26.8s-6.12,8.08-11.14,8.71A18.08,18.08,0,0,0,24.61,26.8Z" transform="translate(-1.51 -5.98)"/><path class="cls-2" d="M52.61,28.45s5.1,5.1-1.33,12.71C51.28,41.16,56,34.8,52.61,28.45Z" transform="translate(-1.51 -5.98)"/></g></svg>